<svg width="20" height="20" viewBox="0 0 20 20" fill="none" xmlns="http://www.w3.org/2000/svg">
<g clip-path="url(#clip0_5_308)">
<path d="M19.7265 0.273542C19.6394 0.186142 19.5359 0.116795 19.4219 0.0694774C19.308 0.0221599 19.1858 -0.00219727 19.0624 -0.00219727C18.939 -0.00219727 18.8169 0.0221599 18.7029 0.0694774C18.5889 0.116795 18.4854 0.186142 18.3984 0.273542L9.99992 8.67198L1.60148 0.273542C1.42536 0.0974217 1.18649 -0.00152167 0.937417 -0.00152167C0.688345 -0.00152166 0.449475 0.0974217 0.273355 0.273542C0.0972344 0.449662 -0.00170897 0.688533 -0.00170897 0.937604C-0.00170898 1.18668 0.0972344 1.42555 0.273355 1.60167L8.67179 10.0001L0.273355 18.3985C0.0972344 18.5747 -0.00170898 18.8135 -0.00170898 19.0626C-0.00170898 19.3117 0.0972344 19.5505 0.273355 19.7267C0.449475 19.9028 0.688345 20.0017 0.937417 20.0017C1.18649 20.0017 1.42536 19.9028 1.60148 19.7267L9.99992 11.3282L18.3984 19.7267C18.5745 19.9028 18.8133 20.0017 19.0624 20.0017C19.3115 20.0017 19.5504 19.9028 19.7265 19.7267C19.9026 19.5505 20.0015 19.3117 20.0015 19.0626C20.0015 18.8135 19.9026 18.5747 19.7265 18.3985L11.328 10.0001L19.7265 1.60167C19.8139 1.51457 19.8832 1.41108 19.9305 1.29712C19.9779 1.18317 20.0022 1.06099 20.0022 0.937604C20.0022 0.814216 19.9779 0.692042 19.9305 0.578087C19.8832 0.464132 19.8139 0.360639 19.7265 0.273542Z" fill="white"/>
</g>
<defs>
<clipPath id="clip0_5_308">
<rect width="20" height="20" fill="white"/>
</clipPath>
</defs>
</svg>
