<svg width="9" height="15" viewBox="0 0 9 15" fill="none" xmlns="http://www.w3.org/2000/svg">
<path d="M8.09375 10.625V5C8.09375 4.74063 7.88438 4.53125 7.625 4.53125C7.36563 4.53125 7.15625 4.74063 7.15625 5V10.625C7.15625 12.0906 5.96563 13.2813 4.5 13.2813C3.03438 13.2813 1.84375 12.0906 1.84375 10.625V3.4375C1.84375 2.49063 2.61563 1.71875 3.5625 1.71875C4.50938 1.71875 5.28125 2.49063 5.28125 3.4375V10.1563C5.28125 10.5875 4.93125 10.9375 4.5 10.9375C4.06875 10.9375 3.71875 10.5875 3.71875 10.1563V4.0625C3.71875 3.80313 3.50938 3.59375 3.25 3.59375C2.99063 3.59375 2.78125 3.80313 2.78125 4.0625V10.1563C2.78125 11.1031 3.55313 11.875 4.5 11.875C5.44688 11.875 6.21875 11.1031 6.21875 10.1563V3.4375C6.21875 1.97188 5.02813 0.78125 3.5625 0.78125C2.09688 0.78125 0.90625 1.97188 0.90625 3.4375V10.625C0.90625 12.6063 2.51875 14.2188 4.5 14.2188C6.48125 14.2188 8.09375 12.6063 8.09375 10.625Z" fill="white"/>
</svg>
