<svg width="21" height="22" viewBox="0 0 21 22" fill="none" xmlns="http://www.w3.org/2000/svg">
<path d="M10.8977 21.6023C9.15909 21.6023 7.62216 21.3636 6.28693 20.8864C4.9517 20.4148 3.82955 19.7188 2.92045 18.7983C2.01136 17.8778 1.32386 16.75 0.857955 15.4148C0.392045 14.0795 0.159091 12.5511 0.159091 10.8295C0.159091 9.16477 0.394886 7.67614 0.866477 6.36364C1.34375 5.05114 2.03409 3.9375 2.9375 3.02273C3.84659 2.10227 4.94886 1.40057 6.24432 0.917614C7.54545 0.434659 9.01705 0.193181 10.6591 0.193181C12.2557 0.193181 13.6534 0.454545 14.8523 0.977272C16.0568 1.49432 17.0625 2.19602 17.8693 3.08239C18.6818 3.96307 19.2898 4.95454 19.6932 6.05682C20.1023 7.15909 20.3068 8.29545 20.3068 9.46591C20.3068 10.2898 20.267 11.125 20.1875 11.9716C20.108 12.8182 19.9403 13.5966 19.6847 14.3068C19.429 15.0114 19.0341 15.5795 18.5 16.0114C17.9716 16.4432 17.2557 16.6591 16.3523 16.6591C15.9545 16.6591 15.517 16.5966 15.0398 16.4716C14.5625 16.3466 14.1392 16.1392 13.7699 15.8494C13.4006 15.5597 13.1818 15.1705 13.1136 14.6818H13.0114C12.875 15.0114 12.6648 15.3239 12.3807 15.6193C12.1023 15.9148 11.7358 16.1506 11.2812 16.3267C10.8324 16.5028 10.2841 16.5795 9.63636 16.5568C8.89773 16.5284 8.24716 16.3636 7.68466 16.0625C7.12216 15.7557 6.65057 15.3409 6.26989 14.8182C5.89489 14.2898 5.6108 13.679 5.41761 12.9858C5.23011 12.2869 5.13636 11.5341 5.13636 10.7273C5.13636 9.96023 5.25 9.25852 5.47727 8.62216C5.70455 7.9858 6.01989 7.42898 6.4233 6.9517C6.83239 6.47443 7.30966 6.09375 7.85511 5.80966C8.40625 5.51989 9 5.34091 9.63636 5.27273C10.2045 5.21591 10.7216 5.24148 11.1875 5.34943C11.6534 5.4517 12.0369 5.60795 12.3381 5.81818C12.6392 6.02273 12.8295 6.25 12.9091 6.5H13.0114V5.54545H14.8182V13.25C14.8182 13.7273 14.9517 14.1477 15.2188 14.5114C15.4858 14.875 15.875 15.0568 16.3864 15.0568C16.9659 15.0568 17.4091 14.858 17.7159 14.4602C18.0284 14.0625 18.2415 13.4489 18.3551 12.6193C18.4744 11.7898 18.5341 10.7273 18.5341 9.43182C18.5341 8.67045 18.429 7.92045 18.2188 7.18182C18.0142 6.4375 17.7017 5.74148 17.2812 5.09375C16.8665 4.44602 16.3409 3.875 15.7045 3.38068C15.0682 2.88636 14.321 2.5 13.4631 2.22159C12.6108 1.9375 11.642 1.79545 10.5568 1.79545C9.22159 1.79545 8.02557 2.00284 6.96875 2.41761C5.91761 2.8267 5.02273 3.42614 4.28409 4.21591C3.55114 5 2.99148 5.95455 2.60511 7.07955C2.22443 8.19886 2.03409 9.47159 2.03409 10.8977C2.03409 12.3466 2.22443 13.6335 2.60511 14.7585C2.99148 15.8835 3.55966 16.8324 4.30966 17.6051C5.06534 18.3778 6 18.9631 7.11364 19.3608C8.22727 19.7642 9.51136 19.9659 10.9659 19.9659C11.5909 19.9659 12.2074 19.9063 12.8153 19.7869C13.4233 19.6676 13.9602 19.5369 14.4261 19.3949C14.892 19.2528 15.2273 19.1477 15.4318 19.0795L15.9091 20.6477C15.5568 20.7955 15.0966 20.9432 14.5284 21.0909C13.9659 21.2386 13.3636 21.3608 12.7216 21.4574C12.0852 21.554 11.4773 21.6023 10.8977 21.6023ZM9.90909 14.8182C10.6705 14.8182 11.2869 14.6648 11.7585 14.358C12.2301 14.0511 12.5739 13.5881 12.7898 12.9688C13.0057 12.3494 13.1136 11.5682 13.1136 10.625C13.1136 9.67045 12.9943 8.92614 12.7557 8.39205C12.517 7.85795 12.1648 7.48295 11.6989 7.26705C11.233 7.05114 10.6591 6.94318 9.97727 6.94318C9.32955 6.94318 8.77557 7.11364 8.31534 7.45455C7.8608 7.78977 7.51136 8.23864 7.26705 8.80114C7.02841 9.35795 6.90909 9.96591 6.90909 10.625C6.90909 11.3523 7.00568 12.0369 7.19886 12.679C7.39205 13.3153 7.70739 13.8324 8.14489 14.2301C8.58239 14.6222 9.17045 14.8182 9.90909 14.8182Z" fill="white"/>
</svg>
