<svg width="60" height="60" viewBox="0 0 60 60" fill="none" xmlns="http://www.w3.org/2000/svg">
<path d="M58.7109 18.7803H1.28906C0.577148 18.7803 0 18.2031 0 17.4912C0 16.7793 0.577148 16.2021 1.28906 16.2021H58.7109C59.4229 16.2021 60 16.7793 60 17.4912C60 18.2032 59.4229 18.7803 58.7109 18.7803Z" fill="#BEBEBE"/>
<path d="M55.137 58.0939H4.86305C2.18156 58.0939 0 55.9125 0 53.2309V6.7693C0 4.08781 2.18156 1.90625 4.86305 1.90625H55.137C57.8184 1.90625 60 4.08781 60 6.7693V53.231C60 55.9125 57.8184 58.0939 55.137 58.0939ZM4.86305 4.48437C3.60316 4.48437 2.57812 5.50941 2.57812 6.7693V53.231C2.57812 54.4909 3.60316 55.5159 4.86305 55.5159H55.137C56.3968 55.5159 57.4219 54.4909 57.4219 53.231V6.7693C57.4219 5.50941 56.3968 4.48437 55.137 4.48437H4.86305Z" fill="#BEBEBE"/>
<path d="M51.563 11.6323H29.8808C29.1689 11.6323 28.5918 11.0552 28.5918 10.3433C28.5918 9.63135 29.1689 9.0542 29.8808 9.0542H51.563C52.2749 9.0542 52.852 9.63135 52.852 10.3433C52.852 11.0552 52.2749 11.6323 51.563 11.6323Z" fill="#BEBEBE"/>
<path d="M26.5784 45.4603C26.3863 45.4603 26.1912 45.4172 26.0074 45.3262C25.3695 45.0102 25.1082 44.2369 25.4242 43.5989L32.4645 29.3805C32.7803 28.7426 33.5535 28.4813 34.1916 28.7972C34.8295 29.1131 35.0907 29.8865 34.7748 30.5244L27.7345 44.7429C27.5097 45.1971 27.053 45.4603 26.5784 45.4603Z" fill="#BEBEBE"/>
<path d="M19.2085 45.466C18.8787 45.466 18.5488 45.3401 18.2971 45.0884L11.185 37.9762C10.6815 37.4727 10.6815 36.6565 11.185 36.1531L18.2971 29.0409C18.8006 28.5375 19.6166 28.5374 20.1201 29.0409C20.6236 29.5443 20.6236 30.3605 20.1201 30.864L13.9195 37.0647L20.1201 43.2654C20.6236 43.7689 20.6236 44.5851 20.1201 45.0885C19.8684 45.3401 19.5383 45.466 19.2085 45.466Z" fill="#BEBEBE"/>
<path d="M40.7914 45.4661C40.4616 45.4661 40.1317 45.3402 39.88 45.0885C39.3765 44.585 39.3765 43.7688 39.88 43.2654L46.0806 37.0646L39.88 30.8639C39.3765 30.3605 39.3765 29.5443 39.88 29.0408C40.3834 28.5375 41.1996 28.5375 41.703 29.0408L48.8152 36.153C49.3186 36.6565 49.3186 37.4727 48.8152 37.9761L41.703 45.0884C41.4512 45.3402 41.1213 45.4661 40.7914 45.4661Z" fill="#BEBEBE"/>
<path d="M22.8516 11.7516C21.3375 11.7854 21.107 9.46038 22.5996 9.19811C24.4253 8.87233 24.7039 11.7157 22.8516 11.7516Z" fill="#BEBEBE"/>
<path d="M15.5848 11.7515C14.0706 11.7864 13.84 9.45933 15.3328 9.19801C17.1564 8.86953 17.4366 11.7171 15.5848 11.7515Z" fill="#BEBEBE"/>
<path d="M8.31784 11.7517C6.46522 11.7163 6.74659 8.86998 8.56991 9.19822C10.0624 9.45955 9.83225 11.7868 8.31784 11.7517Z" fill="#BEBEBE"/>
</svg>
