<svg width="60" height="60" viewBox="0 0 60 60" fill="none" xmlns="http://www.w3.org/2000/svg">
<g clip-path="url(#clip0_1_206)">
<path d="M58.5998 59.9698H20.4999C19.7884 59.9698 19.2115 59.393 19.2115 58.6815V51.5377C19.2115 50.8262 19.7884 50.2494 20.4999 50.2494H31.9115V44.394C31.9115 43.6825 32.4883 43.1057 33.1998 43.1057H44.6115V37.2502C44.6115 36.5387 45.1883 35.9619 45.8998 35.9619H58.5999C59.3114 35.9619 59.8882 36.5387 59.8882 37.2502V58.6815C59.8881 59.3931 59.3113 59.9698 58.5998 59.9698ZM21.7882 57.3932H57.3116V38.5386H47.1881V44.3941C47.1881 45.1056 46.6113 45.6824 45.8998 45.6824H34.4881V51.5378C34.4881 52.2493 33.9113 52.8261 33.1998 52.8261H21.7882V57.3932Z" fill="#DCDCDC"/>
<path d="M40.9145 5.46062L42.9306 1.93266C43.4234 1.09468 42.7885 -0.00775928 41.812 0.00524086H29.9057C29.1942 0.00524086 28.6174 0.582049 28.6174 1.29354C28.6173 2.11724 28.6174 9.01856 28.6174 9.62792V18.4065C28.6174 19.118 29.1942 19.6948 29.9057 19.6948C30.6172 19.6948 31.194 19.118 31.194 18.4065V10.9161H41.812C42.2712 10.9161 42.6958 10.6717 42.9262 10.2744C43.1569 9.87715 43.1584 9.38736 42.9306 8.98857L40.9145 5.46062ZM38.3123 6.09985L39.5921 8.33962H31.1941V2.58173H39.5921L38.3123 4.82138C38.0859 5.2176 38.0859 5.70375 38.3123 6.09985Z" fill="#DCDCDC"/>
<path d="M32.7446 19.3631C31.8353 18.4539 30.6265 17.9531 29.3409 17.9532L23.856 17.9529L19.034 13.1309C19.0159 13.1128 18.997 13.0961 18.9787 13.0784C24.318 12.4249 26.6254 5.72793 22.7717 1.91221C20.3259 -0.637344 15.9175 -0.637461 13.4716 1.91221C10.6074 4.72211 11.0153 9.6104 14.2971 11.911C13.6382 12.0998 13.0125 12.4319 12.4684 12.9067C12.3475 12.9774 12.2354 13.068 12.1391 13.1804L1.26641 25.8855C-1.40471 28.9824 0.868795 33.8573 4.92051 33.8265C6.27943 33.8265 7.63063 33.2558 8.58151 32.145L10.8168 29.5328V32.0484C10.8168 32.499 10.8807 32.9385 10.999 33.3586L4.17645 53.6915C3.77813 54.914 3.87956 56.2185 4.46222 57.3647C5.25535 58.968 6.97816 60.0103 8.75895 59.9997C10.7829 60.0211 12.7241 58.6269 13.3277 56.6826L18.2939 41.9839L18.2934 47.221C18.2398 49.8078 20.5195 52.0887 23.1064 52.035C25.6943 52.0891 27.9744 49.8101 27.921 47.2222L27.9216 36.1946C27.9217 34.538 27.0858 33.0205 25.6854 32.1353L20.4439 28.8224C20.4439 28.4955 20.4439 28.0269 20.4439 27.3685C20.8975 27.5077 21.3742 27.5803 21.8624 27.5807H29.3408C33.5967 27.5907 35.7656 22.3585 32.7446 19.3631ZM15.2936 3.73398C16.0483 2.97939 17.0528 2.56374 18.1219 2.56374C21.6579 2.54839 23.4561 6.89583 20.9499 9.39045C17.0426 12.9869 11.6976 7.64 15.2936 3.73398ZM6.62399 30.4695C5.82162 31.4067 4.40659 31.5168 3.46941 30.7148C2.53235 29.913 2.42261 28.4979 3.22416 27.5606L10.8167 18.6884V25.5699L6.62399 30.4695ZM10.8846 55.8639C10.5407 57.022 9.20072 57.7089 8.05987 57.3102C6.91433 56.9661 6.23095 55.6245 6.62282 54.5006L12.8424 35.9646C12.9115 36.0135 12.9812 36.0618 13.0533 36.1074L16.7668 38.4542L10.8846 55.8639ZM24.3088 34.3133C24.9577 34.7234 25.3451 35.4267 25.345 36.1944L25.3444 47.2219C25.3689 48.424 24.3104 49.4835 23.1076 49.4583C21.905 49.4832 20.8451 48.4238 20.87 47.2211L20.8709 38.71C20.8709 38.2681 20.6444 37.8569 20.2709 37.6208L14.4299 33.9295C13.781 33.5193 13.3934 32.8161 13.3934 32.0484V21.1052L17.8674 25.5791C17.8672 28.9251 17.8674 29.5325 17.8674 29.5325C17.8675 29.9742 18.094 30.3851 18.4674 30.6211L24.3088 34.3133ZM29.3408 25.0039H21.8632C21.265 25.0035 20.7027 24.7707 20.2802 24.3482L20.0678 24.1358C20.0665 24.1382 14.0501 18.1153 14.0484 18.1162C12.6419 16.6988 13.6506 14.3012 15.6302 14.2984C16.2029 14.2984 16.7759 14.5165 17.212 14.9525L22.4113 20.1519C22.6528 20.3935 22.9805 20.5292 23.3222 20.5292L29.3408 20.5296C30.5432 20.5048 31.6027 21.5643 31.5777 22.7667C31.5778 24.0003 30.5742 25.0039 29.3408 25.0039Z" fill="#DCDCDC"/>
</g>
<defs>
<clipPath id="clip0_1_206">
<rect width="60" height="60" fill="white"/>
</clipPath>
</defs>
</svg>
