<svg width="60" height="60" viewBox="0 0 60 60" fill="none" xmlns="http://www.w3.org/2000/svg">
<g clip-path="url(#clip0_1_172)">
<path d="M34.7991 26.2077C34.7981 26.1927 34.7976 26.1776 34.7959 26.1627C34.7935 26.1409 34.7895 26.119 34.786 26.0972C34.7825 26.0752 34.7793 26.0529 34.7746 26.0312C34.7715 26.0168 34.7671 26.0025 34.7635 25.9881C34.7563 25.9596 34.7489 25.9313 34.7399 25.9035C34.7391 25.9008 34.7386 25.8981 34.7377 25.8955L31.1634 15.1725C30.9879 14.646 30.4952 14.291 29.9403 14.291C29.3853 14.291 28.8927 14.6461 28.7172 15.1725L25.1428 25.8955C25.1419 25.8981 25.1414 25.9008 25.1406 25.9035C25.1316 25.9311 25.1242 25.9596 25.117 25.9881C25.1134 26.0025 25.1091 26.0168 25.106 26.0312C25.1013 26.0529 25.0983 26.0751 25.0946 26.0972C25.0911 26.1191 25.087 26.1409 25.0847 26.1627C25.083 26.1776 25.0826 26.1927 25.0815 26.2077C25.0793 26.2368 25.0773 26.2659 25.0771 26.2948C25.0771 26.2976 25.0766 26.3003 25.0766 26.3033V40.7198C25.0766 41.4318 25.6538 42.009 26.3658 42.009C27.0778 42.009 27.655 41.4318 27.655 40.7198V27.5923H32.2253V40.7197C32.2253 41.4317 32.8025 42.0089 33.5145 42.0089C34.2265 42.0089 34.8037 41.4317 34.8037 40.7197V26.3031C34.8037 26.3002 34.8033 26.2976 34.8032 26.2947C34.8033 26.2659 34.8013 26.2368 34.7991 26.2077ZM29.9404 19.6569L31.726 25.0139H28.1546L29.9404 19.6569Z" fill="#383838"/>
<path d="M42.0268 4.28592C37.5314 0.627653 31.6347 -0.781787 25.8493 0.41857C18.4102 1.9622 12.4859 8.05575 11.1076 15.5815C10.1341 20.8969 11.3488 26.1804 14.5279 30.4588C16.7205 33.4099 17.928 36.8084 17.928 40.0282L17.9281 47.9876C17.9281 52.6403 21.7133 56.4255 26.366 56.4255H33.5147C38.1673 56.4255 41.9526 52.6403 41.9526 47.9876V40.3504C41.9526 36.9444 43.1718 33.4648 45.4787 30.2878C47.8487 27.0237 49.1013 23.1739 49.1013 19.1545C49.1013 13.3641 46.5228 7.94453 42.0268 4.28592ZM39.3742 46.6984H20.5065L20.5064 42.009H39.3742V46.6984ZM33.5147 53.8471H26.366C23.5781 53.8471 21.2403 51.8894 20.6511 49.2768H39.2295C38.6404 51.8894 36.3026 53.8471 33.5147 53.8471ZM43.3922 28.7729C40.9673 32.1126 39.5979 35.7785 39.4001 39.4306H20.494C20.356 35.8438 18.9854 32.135 16.5976 28.9211C13.8495 25.2228 12.8005 20.6504 13.6437 16.0459C14.835 9.54149 19.9505 4.27584 26.373 2.94316C31.3957 1.90091 36.5081 3.11931 40.3992 6.28569C44.2908 9.45265 46.5228 14.1432 46.5228 19.1545C46.5229 22.6261 45.4403 25.952 43.3922 28.7729Z" fill="#383838"/>
<path d="M33.5147 60H26.366C25.6541 60 25.0768 59.4228 25.0768 58.7108C25.0768 57.9988 25.6541 57.4216 26.366 57.4216H33.5147C34.2267 57.4216 34.8039 57.9988 34.8039 58.7108C34.8039 59.4228 34.2268 60 33.5147 60Z" fill="#383838"/>
<path d="M58.6544 20.4436H54.9608C54.2488 20.4436 53.6716 19.8664 53.6716 19.1544C53.6716 18.4424 54.2488 17.8652 54.9608 17.8652H58.6544C59.3664 17.8652 59.9436 18.4424 59.9436 19.1544C59.9436 19.8665 59.3664 20.4436 58.6544 20.4436Z" fill="#383838"/>
<path d="M4.92006 20.4436H1.34571C0.633726 20.4436 0.0565186 19.8664 0.0565186 19.1544C0.0565186 18.4424 0.633726 17.8652 1.34571 17.8652H4.92006C5.63205 17.8652 6.20925 18.4424 6.20925 19.1544C6.20925 19.8665 5.63205 20.4436 4.92006 20.4436Z" fill="#383838"/>
<path d="M51.61 7.93385C51.1644 7.93385 50.7311 7.70261 50.4922 7.28902C50.1362 6.67243 50.3475 5.88391 50.9641 5.52798L54.0595 3.7408C54.676 3.38487 55.4645 3.59595 55.8206 4.21265C56.1766 4.82924 55.9653 5.61775 55.3487 5.97369L52.2534 7.76086C52.0504 7.87806 51.8287 7.93385 51.61 7.93385Z" fill="#383838"/>
<path d="M5.17778 34.7414C4.73218 34.7414 4.2989 34.5102 4.06004 34.0966C3.70399 33.48 3.9153 32.6915 4.53189 32.3356L7.62736 30.5484C8.24383 30.1925 9.03246 30.4037 9.3884 31.0202C9.74445 31.6368 9.53314 32.4253 8.91655 32.7813L5.82108 34.5685C5.61821 34.6858 5.39659 34.7414 5.17778 34.7414Z" fill="#383838"/>
<path d="M54.7031 34.7414C54.4844 34.7414 54.2628 34.6856 54.0597 34.5684L50.9642 32.7812C50.3476 32.4252 50.1363 31.6368 50.4924 31.0202C50.8484 30.4036 51.6368 30.1925 52.2534 30.5483L55.3489 32.3355C55.9654 32.6916 56.1768 33.48 55.8207 34.0966C55.582 34.5102 55.1486 34.7414 54.7031 34.7414Z" fill="#383838"/>
<path d="M8.27091 7.93382C8.05221 7.93382 7.83059 7.87804 7.62748 7.76084L4.53201 5.97366C3.91543 5.61761 3.70412 4.82921 4.06017 4.21262C4.41622 3.59604 5.20474 3.38484 5.8212 3.74078L8.91668 5.52795C9.53326 5.884 9.74457 6.6724 9.38852 7.28899C9.14979 7.70247 8.71638 7.93382 8.27091 7.93382Z" fill="#383838"/>
</g>
<defs>
<clipPath id="clip0_1_172">
<rect width="60" height="60" fill="white"/>
</clipPath>
</defs>
</svg>
