<svg width="60" height="60" viewBox="0 0 60 60" fill="none" xmlns="http://www.w3.org/2000/svg">
<g clip-path="url(#clip0_1_228)">
<path d="M14.8746 45.2076L14.8742 45.2074C16.1272 46.4603 16.1272 48.499 14.8743 49.7519C14.6892 49.937 14.4822 50.0992 14.259 50.234C14.1237 50.3185 13.9642 50.3879 13.8142 50.4613L4.5937 55.4044C4.68499 55.2268 9.5635 46.3965 9.65749 46.1924C9.81862 45.8238 10.0447 45.4922 10.3294 45.2075C10.9559 44.581 11.7788 44.2676 12.6018 44.2676C13.4248 44.2676 14.2477 44.581 14.8742 45.2075L14.874 45.2072L11.4691 41.8022C10.3828 42.0173 9.34659 42.5443 8.50647 43.3843C8.00796 43.8828 7.60905 44.4609 7.32018 45.1031L0.235379 57.9765C-0.0400115 58.4767 0.0465901 59.0984 0.448192 59.5045C0.696512 59.7556 1.02874 59.8872 1.36507 59.8871C1.57261 59.8871 1.78179 59.837 1.97374 59.734L14.9919 52.7553C15.6315 52.4663 16.2016 52.0695 16.6973 51.5751C17.5374 50.735 18.0644 49.6988 18.2794 48.6125L14.8746 45.2076Z" fill="#BEBEBE"/>
<path d="M37.8834 29.1602C34.178 29.2369 30.844 25.9857 30.9183 22.1984C30.8931 16.0425 38.4632 12.9084 42.8084 17.2736C45.5102 19.866 45.5105 24.5311 42.8084 27.1236C41.4506 28.4813 39.667 29.1602 37.8834 29.1602ZM37.8834 17.8136C35.5498 17.7652 33.4496 19.8133 33.4965 22.1984C33.4965 23.3702 33.9528 24.4718 34.7814 25.3004C37.5183 28.0496 42.2863 26.0757 42.2703 22.1983C42.3168 19.8134 40.2172 17.7651 37.8834 17.8136Z" fill="#BEBEBE"/>
<path d="M58.2082 12.5343C59.9981 6.11088 60.0008 1.50646 60.0001 1.31357C59.9987 0.962946 59.8545 0.62779 59.6006 0.385798C59.3468 0.143806 59.0052 0.0160712 58.6549 0.030954C52.0136 0.320876 45.654 1.85744 39.753 4.5981C32.516 8.02384 26.3802 12.7338 21.4523 19.2742L10.8619 18.7593C10.4982 18.7408 10.1448 18.8783 9.88781 19.1353L0.377578 28.6453C0.0439451 28.979 -0.0807424 29.4681 0.0524998 29.9208C0.185742 30.3734 0.555586 30.7171 1.01672 30.8168L12.675 33.3377C10.9247 36.5977 9.83062 38.9117 9.81609 38.9425C9.58418 39.4344 9.68602 40.0191 10.0706 40.4037L14.8741 45.2072L14.8744 45.2074L14.8747 45.2077L19.7783 50.1113C20.1825 50.5157 20.8038 50.6032 21.3012 50.3346C21.5516 50.1997 23.6934 49.0425 26.6466 47.3485L29.1567 58.9567C29.3524 59.9385 30.6287 60.3171 31.3282 59.5957L40.8382 50.0857C41.0953 49.8286 41.2318 49.4748 41.2143 49.1117L40.6996 38.5247C50.0036 31.9766 55.4269 22.1715 58.2082 12.5343ZM55.7004 11.9291C55.2598 13.4994 54.6775 15.2725 53.9102 17.1681L42.8155 6.07338C47.4192 4.18865 52.2968 3.05299 57.3594 2.68795C57.233 4.46299 56.8516 7.82591 55.7004 11.9291ZM11.3068 21.3621L19.6509 21.7678C17.8512 24.3588 15.7717 27.7467 13.9678 30.9796L3.87234 28.7966L11.3068 21.3621ZM14.9394 34.5782L19.3099 38.9488L15.7859 42.473L12.5421 39.2292C12.9993 38.2989 13.8342 36.6348 14.9394 34.5782ZM20.9189 47.6059L17.6089 44.296L21.133 40.7719L25.4292 45.0681C23.4563 46.2018 21.8412 47.0988 20.9189 47.6059ZM38.6112 48.6665L31.1767 56.101L28.9901 45.9886C31.8848 44.2894 35.199 42.2684 38.2022 40.2536L38.6112 48.6665ZM43.6269 32.8295C40.5109 35.9456 33.3489 40.4308 27.7355 43.7283L22.956 38.9488L29.1683 32.7365C29.6718 32.233 29.6716 31.4168 29.1683 30.9134C28.6649 30.4101 27.8487 30.4101 27.3452 30.9134L21.1329 37.1257L16.2311 32.2238C19.13 27.0495 23.21 20.4969 27.2522 16.4548C31.083 12.6239 35.4689 9.51306 40.293 7.19709L52.8002 19.7042C50.8064 23.9363 47.8888 28.5676 43.6269 32.8295Z" fill="#BEBEBE"/>
</g>
<defs>
<clipPath id="clip0_1_228">
<rect width="60" height="60" fill="white"/>
</clipPath>
</defs>
</svg>
