<svg width="60" height="60" viewBox="0 0 60 60" fill="none" xmlns="http://www.w3.org/2000/svg">
<path d="M58.7109 42.011H1.28906C0.577148 42.011 0 41.4338 0 40.7219C0 40.01 0.577148 39.4329 1.28906 39.4329H58.7109C59.4229 39.4329 60 40.01 60 40.7219C60 41.4338 59.4229 42.011 58.7109 42.011Z" fill="#DCDCDC"/>
<path d="M55.137 3.69312H4.98223C2.28152 3.69312 0 5.92003 0 8.55605V44.2958C0 46.9318 2.28152 49.1588 4.98223 49.1588H25.137V53.7287H19.278C18.5661 53.7287 17.989 54.3058 17.989 55.0177C17.989 55.7296 18.5661 56.3068 19.278 56.3068H40.7218C41.4338 56.3068 42.0109 55.7296 42.0109 55.0177C42.0109 54.3058 41.4338 53.7287 40.7218 53.7287H34.8629V49.1589H55.1368C57.8183 49.1589 59.9999 46.9774 59.9999 44.2959V8.55605C60 5.87456 57.8184 3.69312 55.137 3.69312ZM32.2849 53.7287H27.7151V49.1589H32.2849V53.7287ZM57.4219 44.2959C57.4219 45.5558 56.3968 46.5808 55.137 46.5808H4.98223C3.67898 46.5808 2.57812 45.5343 2.57812 44.2959V8.55605C2.57812 7.31749 3.67898 6.27112 4.98223 6.27112H55.137C56.3968 6.27112 57.4219 7.29616 57.4219 8.55605V44.2959Z" fill="#DCDCDC"/>
<path d="M23.8986 34.3244C24.056 34.1084 24.1403 33.8409 24.1411 33.5739V12.13C24.1541 11.4347 23.5383 10.8236 22.8433 10.8409H8.56478C7.86986 10.8237 7.25416 11.4348 7.26705 12.13V33.5739C7.25416 34.2654 7.86482 34.8769 8.55681 34.863H22.8513C23.26 34.8647 23.6639 34.6598 23.8986 34.3244ZM14.1549 22.852L9.84517 29.3165V16.3874L14.1549 22.852ZM10.9648 13.4191H20.4435L15.7041 20.528L10.9648 13.4191ZM15.7041 25.1758L20.4435 32.2848H10.9648L15.7041 25.1758ZM17.2533 22.852L21.563 16.3874V29.3165L17.2533 22.852Z" fill="#DCDCDC"/>
<path d="M51.4439 20.5672H30C29.2881 20.5672 28.7109 19.99 28.7109 19.2781V12.1301C28.7109 11.4182 29.2881 10.8411 30 10.8411H51.4439C52.1558 10.8411 52.733 11.4182 52.733 12.1301V19.2781C52.733 19.99 52.1558 20.5672 51.4439 20.5672ZM31.2891 17.989H50.1548V13.4192H31.2891V17.989Z" fill="#DCDCDC"/>
<path d="M37.148 34.8631H30C29.2881 34.8631 28.7109 34.2859 28.7109 33.574V26.426C28.7109 25.7141 29.2881 25.137 30 25.137H37.148C37.8599 25.137 38.437 25.7141 38.437 26.426V33.574C38.437 34.2859 37.8599 34.8631 37.148 34.8631ZM31.2891 32.2849H35.8589V27.7151H31.2891V32.2849Z" fill="#DCDCDC"/>
<path d="M51.4439 34.8631H44.2959C43.584 34.8631 43.0068 34.2859 43.0068 33.574V26.426C43.0068 25.7141 43.584 25.137 44.2959 25.137H51.4439C52.1558 25.137 52.7329 25.7141 52.7329 26.426V33.574C52.7329 34.2859 52.1558 34.8631 51.4439 34.8631ZM45.585 32.2849H50.1548V27.7151H45.585V32.2849Z" fill="#DCDCDC"/>
</svg>
