<svg width="80" height="80" viewBox="0 0 80 80" fill="none" xmlns="http://www.w3.org/2000/svg">
<path d="M22.55 38.435C22.55 39.42 22.65 40.22 22.84 40.81C23.05 41.395 23.32 42.035 23.69 42.73C23.8081 42.9136 23.8722 43.1267 23.875 43.345C23.875 43.61 23.715 43.88 23.375 44.145L21.695 45.265C21.4933 45.4106 21.2535 45.494 21.005 45.505C20.735 45.505 20.47 45.375 20.205 45.135C19.8456 44.7483 19.5242 44.3281 19.245 43.88C18.9492 43.367 18.6757 42.8415 18.425 42.305C16.345 44.76 13.74 45.99 10.6 45.99C8.365 45.99 6.58 45.345 5.28 44.065C3.975 42.785 3.31 41.075 3.31 38.94C3.31 36.67 4.11 34.83 5.73 33.44C7.355 32.05 9.51 31.36 12.25 31.36C13.15 31.36 14.085 31.44 15.07 31.57C16.055 31.705 17.07 31.92 18.13 32.16V30.21C18.13 28.18 17.705 26.765 16.88 25.94C16.03 25.11 14.59 24.71 12.54 24.71C11.61 24.71 10.655 24.82 9.67 25.06C8.69136 25.2929 7.73059 25.5953 6.795 25.965C6.49294 26.1018 6.18228 26.2187 5.865 26.315C5.72751 26.3604 5.58459 26.3873 5.44 26.395C5.065 26.395 4.88 26.125 4.88 25.565V24.255C4.88 23.83 4.93 23.505 5.065 23.325C5.26648 23.0797 5.5236 22.886 5.815 22.76C6.74 22.28 7.86 21.88 9.165 21.56C10.465 21.21 11.85 21.055 13.315 21.055C16.48 21.055 18.795 21.775 20.285 23.215C21.75 24.655 22.495 26.845 22.495 29.785V38.435H22.545H22.55ZM11.745 42.49C12.62 42.49 13.525 42.33 14.485 42.01C15.445 41.69 16.295 41.1 17.01 40.3C17.4387 39.8088 17.7484 39.2254 17.915 38.595C18.075 37.95 18.185 37.18 18.185 36.27V35.15C17.3774 34.9542 16.5595 34.8039 15.735 34.7C14.9059 34.5928 14.071 34.5376 13.235 34.535C11.45 34.535 10.15 34.885 9.27 35.605C8.39 36.325 7.97 37.34 7.97 38.675C7.97 39.925 8.285 40.86 8.95 41.505C9.59 42.17 10.52 42.49 11.745 42.49ZM33.11 45.375C32.63 45.375 32.31 45.295 32.1 45.105C31.885 44.945 31.7 44.575 31.54 44.065L25.29 23.43C25.1684 23.0839 25.0879 22.7248 25.05 22.36C25.05 21.935 25.26 21.695 25.685 21.695H28.295C28.795 21.695 29.145 21.775 29.33 21.96C29.545 22.12 29.705 22.495 29.865 23L34.335 40.675L38.485 23C38.615 22.47 38.775 22.12 38.99 21.96C39.3094 21.7645 39.6812 21.672 40.055 21.695H42.185C42.685 21.695 43.035 21.775 43.245 21.96C43.46 22.12 43.645 22.495 43.755 23L47.955 40.89L52.555 23C52.6405 22.6129 52.8248 22.2546 53.09 21.96C53.3999 21.764 53.764 21.6712 54.13 21.695H56.605C57.03 21.695 57.27 21.91 57.27 22.36C57.27 22.495 57.24 22.63 57.22 22.79C57.1768 23.0169 57.1132 23.2395 57.03 23.455L50.615 44.09C50.46 44.625 50.27 44.975 50.06 45.135C49.7581 45.3281 49.4028 45.4209 49.045 45.4H46.76C46.255 45.4 45.91 45.32 45.695 45.135C45.48 44.945 45.295 44.6 45.19 44.065L41.065 26.85L36.965 44.045C36.835 44.58 36.675 44.925 36.465 45.11C36.25 45.3 35.875 45.38 35.4 45.38H33.11V45.375ZM67.3 46.095C65.9192 46.0968 64.543 45.9357 63.2 45.615C61.87 45.295 60.835 44.945 60.14 44.545C59.715 44.305 59.425 44.04 59.315 43.795C59.2136 43.5597 59.1609 43.3062 59.16 43.05V41.69C59.16 41.13 59.37 40.86 59.77 40.86C59.9333 40.8604 60.0954 40.8874 60.25 40.94C60.41 40.995 60.65 41.1 60.915 41.21C61.815 41.61 62.805 41.93 63.84 42.145C64.905 42.355 65.94 42.465 67.005 42.465C68.685 42.465 69.985 42.17 70.89 41.585C71.3248 41.3218 71.682 40.9481 71.9253 40.5019C72.1686 40.0557 72.2892 39.553 72.275 39.045C72.284 38.702 72.225 38.3606 72.1014 38.0405C71.9778 37.7204 71.7921 37.428 71.555 37.18C71.08 36.67 70.175 36.215 68.87 35.79L65.01 34.59C63.07 33.975 61.63 33.065 60.755 31.865C59.8984 30.7562 59.431 29.3961 59.425 27.995C59.425 26.875 59.665 25.885 60.14 25.03C60.62 24.18 61.26 23.43 62.06 22.84C62.86 22.23 63.76 21.775 64.825 21.455C65.89 21.135 67.005 21 68.175 21C68.765 21 69.375 21.025 69.96 21.105C70.57 21.185 71.13 21.295 71.69 21.405C72.22 21.535 72.73 21.665 73.205 21.83C73.685 21.99 74.055 22.15 74.325 22.31C74.6389 22.4678 74.9125 22.6953 75.125 22.975C75.2962 23.2353 75.3786 23.544 75.36 23.855V25.11C75.36 25.67 75.15 25.965 74.75 25.965C74.3958 25.9246 74.0528 25.8159 73.74 25.645C72.1321 24.9323 70.3886 24.5774 68.63 24.605C67.115 24.605 65.915 24.845 65.09 25.355C64.265 25.855 63.84 26.635 63.84 27.73C63.84 28.475 64.105 29.115 64.64 29.625C65.17 30.13 66.155 30.635 67.565 31.09L71.345 32.29C73.26 32.905 74.645 33.76 75.47 34.855C76.295 35.95 76.69 37.205 76.69 38.595C76.69 39.745 76.455 40.78 76 41.69C75.5291 42.6032 74.8675 43.4046 74.06 44.04C73.235 44.705 72.25 45.19 71.105 45.535C69.905 45.91 68.655 46.095 67.3 46.095Z" fill="white"/>
<path fill-rule="evenodd" clip-rule="evenodd" d="M72.325 59.065C63.575 65.55 50.855 68.995 39.92 68.995C24.595 68.995 10.785 63.31 0.354987 53.86C-0.470013 53.11 0.274987 52.095 1.25499 52.685C12.54 59.25 26.455 63.23 40.855 63.23C50.56 63.23 61.23 61.2 71.05 57.035C72.515 56.37 73.765 57.995 72.325 59.065Z" fill="white"/>
<path fill-rule="evenodd" clip-rule="evenodd" d="M75.97 54.9C74.855 53.465 68.575 54.21 65.73 54.555C64.88 54.665 64.745 53.915 65.515 53.355C70.515 49.83 78.74 50.845 79.695 52.02C80.655 53.22 79.43 61.47 74.745 65.42C74.03 66.035 73.34 65.72 73.66 64.92C74.72 62.27 77.09 56.32 75.97 54.905V54.9Z" fill="white"/>
</svg>
