<svg width="90" height="90" viewBox="0 0 90 90" fill="none" xmlns="http://www.w3.org/2000/svg">
<path d="M7.27133 48.9746C5.07623 46.7795 5.07623 43.2205 7.27133 41.0254L41.0254 7.27133C43.2205 5.07623 46.7795 5.07623 48.9746 7.27133L82.7286 41.0254C84.9237 43.2205 84.9237 46.7795 82.7286 48.9746L48.9746 82.7286C46.7795 84.9237 43.2205 84.9237 41.0254 82.7286L7.27133 48.9746Z" fill="#929292"/>
<path d="M34.1688 14.2355L30.7507 17.6537L39.5789 26.4819C39.2217 27.248 39.0223 28.1025 39.0223 29.0036C39.0223 31.5619 40.6296 33.7447 42.8895 34.5971V56.1932C40.6296 57.0457 39.0223 59.2284 39.0223 61.7867C39.0223 65.0874 41.6981 67.7633 44.9989 67.7633C48.2996 67.7633 50.9754 65.0874 50.9754 61.7867C50.9754 59.4675 49.6544 57.4566 47.7236 56.466V34.6267L56.1625 43.0656C55.8228 43.8162 55.6338 44.6496 55.6338 45.5271C55.6338 48.8278 58.3096 51.5036 61.6103 51.5036C64.9111 51.5036 67.5869 48.8278 67.5869 45.5271C67.5869 42.2263 64.9111 39.5505 61.6103 39.5505C60.9688 39.5505 60.3512 39.6515 59.7718 39.8385L50.7085 30.7752C50.882 30.2155 50.9754 29.6204 50.9754 29.0036C50.9754 25.7028 48.2996 23.027 44.9989 23.027C44.3821 23.027 43.7872 23.1205 43.2273 23.294L34.1688 14.2355Z" fill="white"/>
</svg>
