<svg width="80" height="80" viewBox="0 0 80 80" fill="none" xmlns="http://www.w3.org/2000/svg">
<path d="M18.001 63.0955L10.2803 64.857V14.8555L18.001 16.6204V63.0955Z" fill="#F2F2F2"/>
<path d="M27.6341 66.0467L18.0011 68.7843V10.9966L27.6341 13.7308V66.0467Z" fill="#F2F2F2"/>
<path d="M39.9913 69.0789L27.6342 73.6013V6.1796L39.9913 10.6999V69.0789Z" fill="#F2F2F2"/>
<path d="M73.0322 63.2462L39.9912 79.7667V0L73.0322 16.5205V63.2462Z" fill="#F2F2F2"/>
<path d="M33.4049 3.29368L39.9912 0V79.7667L33.4049 76.4741V3.29368Z" fill="#BEBEBE"/>
<path d="M22.5355 8.72772L27.6341 6.17856V73.5881L22.5355 71.0389V8.72772Z" fill="#BEBEBE"/>
<path d="M13.9397 13.0263L18.0011 10.9956V68.7711L13.9397 66.7391V13.0263Z" fill="#BEBEBE"/>
<path d="M10.2803 14.8555L6.96777 16.5117V63.256L10.2803 64.9112V14.8555Z" fill="#BEBEBE"/>
</svg>
