<svg width="80" height="80" viewBox="0 0 80 80" fill="none" xmlns="http://www.w3.org/2000/svg">
<g clip-path="url(#clip0_35_146)">
<path d="M80 73.873V6.12707C80 3.34792 78.1491 1.00242 75.6133 0.252258L72.7336 1.97533L40.776 36.0494L39.7741 39.181L39.1887 42.187L49.1542 79.4308L50.6961 80H73.873C77.2568 80 80 77.2569 80 73.873Z" fill="#929292"/>
<path d="M0 6.12698V73.8729C0 75.9679 1.05206 77.8164 2.65598 78.9213L4.62106 77.9803L38.4479 41.7636L39.7741 39.181L39.8236 36.6842L30.6173 1.65778L29.2232 0H6.12699C2.74318 0 0 2.74317 0 6.12698Z" fill="#929292"/>
<path d="M39.7741 39.181L75.6133 0.252336C75.0615 0.0890558 74.4778 6.10352e-05 73.873 6.10352e-05H29.2233L39.7741 39.181Z" fill="#929292"/>
<path d="M6.12701 80H50.6961L39.774 39.181L2.65601 78.9214C3.64278 79.6012 4.83812 80 6.12701 80Z" fill="#929292"/>
<path d="M29.6619 30.3217H34.1073C35.8784 37.0049 37.8943 42.8695 40.1433 48.1609C42.6908 42.2076 44.5581 36.3391 46.1388 30.3217H50.3393C48.458 37.7986 45.3807 45.3342 41.8607 53.1122H38.1451C34.7639 45.7415 31.8854 38.1632 29.6619 30.3217ZM14.9995 18.7421H24.884V61.1287H14.9559V57.8613H21.0405V21.9224H14.9995V18.7421ZM65.0521 21.9224H59.011V57.8614H65.0956V61.1288H55.1676V18.7421H65.0521V21.9224Z" fill="white"/>
</g>
<defs>
<clipPath id="clip0_35_146">
<rect width="80" height="80" fill="white"/>
</clipPath>
</defs>
</svg>
