<svg width="80" height="80" viewBox="0 0 80 80" fill="none" xmlns="http://www.w3.org/2000/svg">
<g clip-path="url(#clip0_35_123)">
<path d="M55.4316 54.9166C58.3838 54.6109 60.6234 52.0659 60.5216 49.0116C60.42 45.9575 57.8747 43.5141 54.8206 43.5141H54.6172C51.4609 43.6159 49.0178 46.2628 49.1197 49.4188C49.2216 50.9459 49.8322 52.2694 50.7484 53.1856C47.2872 60.0069 41.9934 64.9953 34.0528 69.1694C28.6572 72.02 23.0581 73.0381 17.4591 72.3256C12.8778 71.7147 9.31468 69.6788 7.07468 66.3188C3.81718 61.3303 3.51187 55.9344 6.26062 50.5388C8.195 46.67 11.2487 43.8194 13.1831 42.3941C12.7759 41.0706 12.165 38.8309 11.8597 37.2022C-2.90188 47.8919 -1.37469 62.3484 3.10468 69.1694C6.46406 74.26 13.285 77.4159 20.8184 77.4159C22.8544 77.4159 24.8903 77.2122 26.9266 76.7034C39.9575 74.1581 49.8325 66.4206 55.4316 54.9166ZM73.3491 42.2925C65.6119 33.2316 54.21 28.2431 41.1791 28.2431H39.5503C38.6341 26.4106 36.6997 25.1888 34.5619 25.1888H34.3581C31.2025 25.2906 28.7594 27.9375 28.8609 31.0938C28.9628 34.1478 31.5078 36.5913 34.5619 36.5913H34.7653C37.005 36.4894 38.9394 35.0641 39.7537 33.1297H41.5863C49.3234 33.1297 56.6531 35.3694 63.2706 39.7472C68.3606 43.1069 72.0256 47.4847 74.0616 52.7784C75.7922 57.0544 75.6903 61.2284 73.8578 64.7919C71.0075 70.1875 66.2228 73.14 59.9109 73.14C55.8387 73.14 51.9703 71.9181 49.9341 71.0019C48.8144 72.02 46.7781 73.6488 45.3528 74.6672C49.7306 76.7031 54.21 77.8231 58.4856 77.8231C68.2588 77.8231 75.4869 72.4272 78.2356 67.0316C81.1878 61.1266 80.9841 50.9459 73.3491 42.2925ZM21.6328 56.6469C21.7347 59.7013 24.2797 62.1444 27.3337 62.1444H27.5375C30.6934 62.0428 33.1366 59.3956 33.0347 56.2397C32.9331 53.1853 30.3878 50.7422 27.3337 50.7422H27.1303C26.9266 50.7422 26.6209 50.7422 26.4178 50.8438C22.2437 43.9209 20.5131 36.3875 21.1241 28.2428C21.5309 22.1344 23.5672 16.8403 27.1303 12.4625C30.0825 8.69563 35.7834 6.86313 39.6522 6.76156C50.4431 6.55781 55.0241 19.9963 55.3297 25.3922C56.6531 25.6975 58.8928 26.4103 60.42 26.9194C59.1981 10.4269 49.0178 1.875 39.245 1.875C30.0825 1.875 21.6328 8.4925 18.2731 18.2659C13.5903 31.2972 16.6444 43.8194 22.3453 53.6947C21.8366 54.4072 21.5309 55.5269 21.6328 56.6469Z" fill="#F2F2F2"/>
</g>
<defs>
<clipPath id="clip0_35_123">
<rect width="80" height="80" fill="white"/>
</clipPath>
</defs>
</svg>
