<svg width="80" height="80" viewBox="0 0 80 80" fill="none" xmlns="http://www.w3.org/2000/svg">
<path fill-rule="evenodd" clip-rule="evenodd" d="M12.0678 60.7762V55.6631C12.0678 54.9912 12.4878 54.4516 13.1834 54.4516H13.3759C14.0712 54.4516 14.4893 54.9919 14.4893 55.6631V66.4278C14.4893 69.0528 13.1925 71.1416 10.9325 72.4722C9.8972 73.0855 8.71547 73.4078 7.51216 73.405H7.03184C4.40622 73.405 2.32028 72.1072 0.987468 69.8488C0.373249 68.8136 0.0509963 67.6314 0.0549679 66.4278V65.9481C0.0549679 63.3222 1.35247 61.2347 3.61059 59.9016C4.64567 59.2869 5.82805 58.9646 7.03184 58.9688H7.51216C9.28903 58.9688 10.7965 59.6575 12.0678 60.7762ZM2.47622 66.1875C2.47622 68.0838 3.39528 69.5094 5.05684 70.4187C5.72872 70.7862 6.45809 70.9837 7.22466 70.9837C9.08591 70.9837 10.4665 70.1056 11.4187 68.5284C11.8615 67.7947 12.0678 66.9919 12.0678 66.1384C12.0678 64.4947 11.2897 63.2119 9.96497 62.2591C9.16184 61.6816 8.25778 61.3919 7.27184 61.3919C5.24309 61.3919 3.78309 62.4169 2.90684 64.2375C2.61122 64.8531 2.47622 65.5066 2.47622 66.1875ZM22.89 58.9688H23.2256C26.0312 58.9688 28.165 60.3297 29.5172 62.7787C30.0578 63.7584 30.3472 64.8278 30.3472 65.9481V66.4278C30.3472 69.0528 29.0528 71.1444 26.7893 72.4725C25.7415 73.0872 24.584 73.405 23.3697 73.405H22.89C20.2643 73.405 18.1778 72.1072 16.8456 69.8488C16.2311 68.8137 15.9085 67.6315 15.9122 66.4278V65.9481C15.9122 63.3219 17.215 61.2412 19.4675 59.9022C20.5147 59.28 21.6731 58.9688 22.89 58.9688ZM18.3337 66.1875C18.3337 68.0281 19.2368 69.3822 20.7915 70.3344C21.5215 70.7812 22.3256 70.9837 23.1784 70.9837C24.9972 70.9837 26.3415 70.0616 27.2772 68.5266C27.7234 67.7947 27.9253 66.9906 27.9253 66.1384C27.9253 64.4269 27.1009 63.1194 25.6915 62.1719C24.9193 61.6522 24.0597 61.3919 23.1297 61.3919C21.1009 61.3919 19.6409 62.4169 18.765 64.2375C18.4687 64.8531 18.3337 65.5066 18.3337 66.1875ZM40.4137 61.5853C40.0481 61.4141 39.3637 61.3572 38.9687 61.3422C36.9456 61.2659 35.4818 62.4053 34.6231 64.19C34.3265 64.8056 34.1912 65.4572 34.1912 66.1384C34.1912 68.2125 35.2803 69.6647 37.1315 70.55C37.8078 70.8731 38.6809 70.9344 39.42 70.9344C40.07 70.9344 40.9887 70.5363 41.5656 70.2622L41.6656 70.2147H42.1134L42.1628 70.2247C42.7134 70.3394 43.129 70.6884 43.129 71.2809V71.5206C43.129 72.995 40.4347 73.3325 39.4065 73.4044C35.7784 73.6553 33.065 71.6628 32.0306 68.2022C31.8509 67.6012 31.77 67.0044 31.77 66.3781V65.8991C31.77 63.2731 33.0731 61.1931 35.3253 59.8553C36.3725 59.2334 37.5306 58.9209 38.7472 58.9209H39.2272C40.5178 58.9209 41.7065 59.2875 42.7722 60.0153L42.8597 60.0759L42.915 60.1672C43.03 60.3578 43.129 60.5784 43.129 60.8053V61.045C43.129 61.6631 42.6665 61.9956 42.1084 62.1031L42.0622 62.1112H41.919C41.5578 62.1112 40.7362 61.7372 40.4137 61.5853ZM48.2681 63.225C49.2087 62.2831 50.1525 61.3431 51.1072 60.4169C51.3731 60.1584 52.3803 59.0647 52.7768 59.0647H53.2106L53.26 59.075C53.8125 59.1897 54.2262 59.5394 54.2262 60.1331V60.3725C54.2262 60.7775 53.7518 61.2481 53.4903 61.5253C52.934 62.115 52.3484 62.6853 51.779 63.2628L48.8534 66.2328C50.1131 67.4953 51.3715 68.7588 52.6209 70.0309C52.9674 70.3821 53.3113 70.7358 53.6525 71.0922C53.7728 71.2188 53.9503 71.3763 54.0512 71.5516C54.1597 71.7159 54.2262 71.9012 54.2262 72.0991V72.3491L54.2122 72.4069C54.0762 72.9594 53.7256 73.405 53.1134 73.405H52.9206C52.52 73.405 52.0675 72.9519 51.7931 72.6928C51.2275 72.1597 50.6815 71.5991 50.1272 71.0544L48.2681 69.2294V72.1462C48.2681 72.8181 47.8475 73.3581 47.1528 73.3581H46.9622C46.2665 73.3581 45.8465 72.8181 45.8465 72.1462V55.71C45.8465 55.0381 46.2668 54.5006 46.9622 54.5006H47.1528C47.8475 54.5006 48.2681 55.0381 48.2681 55.71V63.225ZM78.4484 59.0647H78.689C79.4153 59.0647 79.9 59.5541 79.9 60.2763C79.9 61.2788 78.9415 61.5353 78.1125 61.5353C77.025 61.5353 75.9865 62.1937 75.2368 62.9322C74.3022 63.8537 73.8931 65.0341 73.8931 66.3316V72.1937C73.8931 72.8656 73.4734 73.405 72.7775 73.405H72.5862C71.8903 73.405 71.4709 72.8659 71.4709 72.1937V65.995C71.4709 63.6147 72.6297 61.6716 74.5615 60.3088C75.715 59.4947 77.0362 59.0647 78.4484 59.0647ZM61.2378 70.6822C62.119 70.99 63.1237 70.9459 64.0278 70.7884C64.4903 70.5919 65.6728 70.0759 66.1078 70.1516L66.1756 70.1631L66.2381 70.1937C66.5037 70.3225 66.7572 70.5047 66.8928 70.775C67.2097 71.4084 67.0575 72.0453 66.435 72.405L66.2278 72.5247C63.9309 73.8503 61.4878 73.6666 59.1981 72.4284C58.1034 71.8366 57.2659 70.9581 56.6481 69.8872L56.5037 69.6369C55.029 67.0831 55.2281 64.3969 56.8912 61.9684C57.4653 61.1291 58.2156 60.4806 59.0928 59.9734L59.4247 59.7819C61.5878 58.5331 63.9062 58.6188 66.1278 59.7147C67.3225 60.3041 68.2903 61.1825 68.9572 62.3378L69.0772 62.5459C69.5615 63.3853 68.934 64.1166 68.2862 64.6166C67.5343 65.1966 66.7753 65.8947 66.0547 66.5166C64.4478 67.9037 62.8434 69.2941 61.2378 70.6822ZM59.1581 69.2216C60.955 67.6809 62.7525 66.1387 64.5447 64.5916C65.1572 64.0634 65.8287 63.5153 66.4362 62.96C65.9487 62.3456 65.1343 61.9028 64.4425 61.6388C63.0456 61.1066 61.6684 61.2853 60.3875 62.0247C58.7109 62.9928 57.9968 64.5344 58.0593 66.4528C58.0843 67.2084 58.2875 67.9366 58.6884 68.5794C58.8297 68.8059 58.9875 69.0187 59.1581 69.2216ZM46.09 20.6975H53.2356V28.0022H56.8484C58.5172 28.0022 60.2331 27.705 61.8131 27.1697C62.5897 26.9062 63.4609 26.54 64.2268 26.0791C63.2181 24.7622 62.7031 23.0994 62.5518 21.4603C62.3456 19.2306 62.7956 16.3287 64.3043 14.5837L65.0556 13.715L65.9506 14.4347C68.204 16.245 70.0993 18.775 70.4334 21.6591C73.1468 20.8609 76.3328 21.0497 78.7243 22.43L79.7056 22.9963L79.1893 24.0044C77.1665 27.9519 72.9375 29.175 68.8031 28.9584C62.6165 44.3675 49.1475 51.6625 32.8165 51.6625C24.379 51.6625 16.6384 48.5084 12.2303 41.0228L12.1581 40.9009L11.5159 39.5941C10.0259 36.2991 9.53091 32.6894 9.86653 29.0825L9.96747 28.0022H16.0781V20.6975H23.2234V13.5519H37.515V6.40625H46.09V20.6975Z" fill="#EDEDED"/>
<path fill-rule="evenodd" clip-rule="evenodd" d="M69.2406 23.4C69.7197 19.6762 66.9331 16.7515 65.205 15.3628C63.2134 17.6653 62.904 23.6997 66.0284 26.2403C64.2847 27.789 60.6106 29.1928 56.8484 29.1928H11.0531C10.6875 33.12 11.3768 36.7365 12.9515 39.8319L13.4725 40.785C13.8023 41.3444 14.1628 41.8852 14.5522 42.405C16.435 42.5259 18.1709 42.5675 19.759 42.5325H19.7597C22.8806 42.4637 25.4272 42.095 27.3572 41.4262C27.4936 41.3838 27.6412 41.3961 27.7687 41.4605C27.8963 41.5249 27.9938 41.6365 28.0406 41.7715C28.0874 41.9065 28.0798 42.0544 28.0195 42.1839C27.9592 42.3135 27.8509 42.4145 27.7175 42.4656C27.4606 42.555 27.1931 42.6381 26.9168 42.7172H26.9159C25.3962 43.1512 23.7665 43.4431 21.664 43.5728C21.789 43.575 21.534 43.5915 21.5334 43.5915C21.4618 43.5962 21.3718 43.6065 21.3 43.6103C20.4725 43.6569 19.5793 43.6665 18.6662 43.6665C17.6675 43.6665 16.684 43.6478 15.5843 43.5915L15.5562 43.6103C19.3718 47.899 25.3381 50.4712 32.8168 50.4712C48.6443 50.4712 62.0693 43.455 68.0143 27.7034C72.2318 28.1362 76.2853 27.0606 78.129 23.4612C75.1922 21.7665 71.4153 22.3069 69.2406 23.4Z" fill="#929292"/>
<path fill-rule="evenodd" clip-rule="evenodd" d="M69.2406 23.4C69.7197 19.6762 66.9331 16.7515 65.205 15.3628C63.2135 17.6653 62.9041 23.6997 66.0285 26.2403C64.2847 27.789 60.6106 29.1928 56.8485 29.1928H13.765C13.5781 35.2072 15.81 39.7725 19.7588 42.5325H19.7597C22.8806 42.4637 25.4272 42.095 27.3572 41.4262C27.4936 41.3838 27.6412 41.3961 27.7688 41.4605C27.8963 41.5249 27.9938 41.6365 28.0406 41.7715C28.0874 41.9065 28.0799 42.0544 28.0196 42.1839C27.9593 42.3135 27.851 42.4145 27.7175 42.4656C27.4606 42.555 27.1931 42.6381 26.9169 42.7172H26.916C25.3963 43.1512 23.6266 43.4806 21.5241 43.6103C21.5235 43.6103 21.4731 43.5619 21.4725 43.5619C26.8591 46.325 34.6694 46.315 43.6241 42.8753C53.6647 39.0178 63.0081 31.669 69.5272 23.2637C69.4291 23.3081 69.3335 23.3534 69.2406 23.4Z" fill="#929292"/>
<path fill-rule="evenodd" clip-rule="evenodd" d="M11.139 33.9644C11.4234 36.0681 12.039 38.0378 12.9515 39.8319L13.4725 40.785C13.8023 41.3445 14.1627 41.8853 14.5522 42.405C16.4353 42.5259 18.1712 42.5675 19.7597 42.5325C22.8806 42.4637 25.4272 42.095 27.3572 41.4262C27.4936 41.3838 27.6412 41.3961 27.7687 41.4605C27.8963 41.5249 27.9938 41.6365 28.0406 41.7715C28.0874 41.9065 28.0798 42.0544 28.0195 42.1839C27.9592 42.3135 27.8509 42.4145 27.7175 42.4656C27.4606 42.555 27.1931 42.6381 26.9169 42.7172H26.9159C25.3962 43.1512 23.6359 43.4619 21.5334 43.5919C21.4612 43.5962 21.3353 43.5972 21.2625 43.6012C20.4356 43.6475 19.5515 43.6759 18.6381 43.6759C17.6397 43.6759 16.6184 43.6569 15.5194 43.6009C19.335 47.8897 25.3381 50.4712 32.8169 50.4712C46.3669 50.4712 58.1556 45.3281 64.9978 33.9644H11.139Z" fill="#353535"/>
<path fill-rule="evenodd" clip-rule="evenodd" d="M14.1772 33.9644C14.9872 37.6581 16.9338 40.5578 19.7597 42.5325C22.8807 42.4637 25.4272 42.095 27.3572 41.4262C27.4937 41.3838 27.6413 41.3961 27.7688 41.4605C27.8964 41.5249 27.9939 41.6365 28.0407 41.7715C28.0875 41.9065 28.0799 42.0544 28.0196 42.1839C27.9593 42.3135 27.851 42.4145 27.7176 42.4656C27.4607 42.555 27.1932 42.6381 26.9169 42.7172H26.916C25.3963 43.1512 23.5988 43.4619 21.496 43.5919C26.8822 46.3544 34.6701 46.3147 43.6241 42.8753C49.041 40.794 54.2544 37.6959 58.9316 33.9644H14.1772Z" fill="#929292"/>
<path fill-rule="evenodd" clip-rule="evenodd" d="M17.2688 21.8884H23.4619V28.0815H17.2688V21.8884ZM17.7847 22.4047H18.2735V27.5656H17.7847V22.4047ZM18.7035 22.4047H19.2119V27.5656H18.7038L18.7035 22.4047ZM19.6416 22.4047H20.1501V27.5656H19.6416V22.4047ZM20.5804 22.4047H21.0885V27.5656H20.5804V22.4047ZM21.5188 22.4047H22.0269V27.5656H21.5188V22.4047ZM22.4569 22.4047H22.946V27.5656H22.4569V22.4047ZM24.4144 14.7428H30.6079V20.9356H24.4141L24.4144 14.7428ZM24.9307 15.259H25.4191V20.4197H24.9307V15.259ZM25.8494 15.259H26.3575V20.4197H25.8497L25.8494 15.259ZM26.7875 15.259H27.2957V20.4197H26.7875V15.259ZM27.726 15.259H28.2341V20.4197H27.726V15.259ZM28.6644 15.259H29.1729V20.4197H28.6644V15.259ZM29.6025 15.259H30.0919V20.4197H29.6025V15.259Z" fill="#353535"/>
<path fill-rule="evenodd" clip-rule="evenodd" d="M24.4144 21.8884H30.6078V28.0816H24.4141L24.4144 21.8884ZM24.9306 22.4047H25.4191V27.5656H24.9306V22.4047ZM25.8494 22.4047H26.3575V27.5656H25.8497L25.8494 22.4047ZM26.7875 22.4047H27.2956V27.5656H26.7875V22.4047ZM27.7259 22.4047H28.2341V27.5656H27.7259V22.4047ZM28.6644 22.4047H29.1728V27.5656H28.6644V22.4047ZM29.6025 22.4047H30.0919V27.5656H29.6025V22.4047Z" fill="#929292"/>
<path fill-rule="evenodd" clip-rule="evenodd" d="M31.5603 21.8884H37.7534V28.0816H31.5603V21.8884ZM32.0762 22.4047H32.5647V27.5656H32.0762V22.4047ZM32.995 22.4047H33.5031V27.5656H32.995V22.4047ZM33.9334 22.4047H34.4416V27.5656H33.9334V22.4047ZM34.8719 22.4047H35.38V27.5656H34.8719V22.4047ZM35.81 22.4047H36.3187V27.5656H35.81V22.4047ZM36.7484 22.4047H37.2372V27.5656H36.7484V22.4047Z" fill="#353535"/>
<path fill-rule="evenodd" clip-rule="evenodd" d="M31.5603 14.7428H37.7534V20.9356H31.5603V14.7428ZM32.0762 15.259H32.5647V20.4197H32.0762V15.259ZM32.995 15.259H33.5031V20.4197H32.995V15.259ZM33.9334 15.259H34.4416V20.4197H33.9334V15.259ZM34.8719 15.259H35.38V20.4197H34.8719V15.259ZM35.81 15.259H36.3187V20.4197H35.81V15.259ZM36.7484 15.259H37.2372V20.4197H36.7484V15.259ZM38.7059 21.8884H44.8991V28.0815H38.7059V21.8884ZM39.2222 22.4047H39.7106V27.5656H39.2222V22.4047ZM40.1409 22.4047H40.6491V27.5656H40.1409V22.4047ZM41.0791 22.4047H41.5872V27.5656H41.0791V22.4047ZM42.0175 22.4047H42.5259V27.5656H42.0175V22.4047ZM42.9559 22.4047H43.4644V27.5656H42.9559V22.4047ZM43.8944 22.4047H44.3831V27.5656H43.8944V22.4047Z" fill="#929292"/>
<path fill-rule="evenodd" clip-rule="evenodd" d="M38.7059 14.7428H44.8991V20.9356H38.7059V14.7428ZM39.2222 15.259H39.7106V20.4197H39.2222V15.259ZM40.1409 15.259H40.6491V20.4197H40.1409V15.259ZM41.0791 15.259H41.5872V20.4197H41.0791V15.259ZM42.0175 15.259H42.5259V20.4197H42.0175V15.259ZM42.9559 15.259H43.4644V20.4197H42.9559V15.259ZM43.8944 15.259H44.3831V20.4197H43.8944V15.259Z" fill="#353535"/>
<path fill-rule="evenodd" clip-rule="evenodd" d="M38.7059 7.59686H44.8991V13.7906H38.7059V7.59686ZM39.2222 8.1128H39.7106V13.2741H39.2222V8.1128ZM40.1409 8.1128H40.6491V13.2741H40.1409V8.1128ZM41.0791 8.1128H41.5872V13.2741H41.0791V8.1128ZM42.0175 8.1128H42.5259V13.2741H42.0175V8.1128ZM42.9559 8.1128H43.4644V13.2741H42.9559V8.1128ZM43.8944 8.1128H44.3831V13.2741H43.8944V8.1128Z" fill="#929292"/>
<path fill-rule="evenodd" clip-rule="evenodd" d="M45.8516 21.8884H52.0447V28.0816H45.8516V21.8884ZM46.3672 22.4047H46.8562V27.5656H46.3675V22.4047H46.3672ZM47.2859 22.4047H47.7944V27.5656H47.2862L47.2859 22.4047ZM48.2247 22.4047H48.7331V27.5656H48.2247V22.4047ZM49.1628 22.4047H49.6712V27.5656H49.1628V22.4047ZM50.1016 22.4047H50.6097V27.5656H50.1016V22.4047ZM51.0397 22.4047H51.5284V27.5656H51.0397V22.4047Z" fill="#353535"/>
<path fill-rule="evenodd" clip-rule="evenodd" d="M30.22 38.1225C30.4463 38.1194 30.671 38.1614 30.881 38.246C31.0909 38.3305 31.282 38.4559 31.4431 38.6149C31.6042 38.7739 31.7321 38.9633 31.8194 39.1721C31.9067 39.3809 31.9516 39.605 31.9516 39.8314C31.9515 40.0577 31.9065 40.2818 31.8191 40.4906C31.7318 40.6994 31.6038 40.8888 31.4427 41.0477C31.2815 41.2066 31.0904 41.332 30.8804 41.4164C30.6704 41.5009 30.4457 41.5428 30.2194 41.5397C29.7702 41.5335 29.3416 41.3507 29.0262 41.0309C28.7108 40.7111 28.534 40.2799 28.5341 39.8308C28.5341 39.3816 28.7111 38.9505 29.0266 38.6308C29.3421 38.3111 29.7709 38.1285 30.22 38.1225Z" fill="#D3ECEC"/>
<path fill-rule="evenodd" clip-rule="evenodd" d="M30.22 38.6072C30.3763 38.6072 30.5253 38.6365 30.6628 38.69C30.5679 38.7451 30.4938 38.8299 30.452 38.9313C30.4101 39.0327 30.4028 39.1451 30.4311 39.251C30.4595 39.357 30.522 39.4507 30.609 39.5176C30.6959 39.5845 30.8025 39.6209 30.9122 39.6212C31.1012 39.6212 31.2653 39.5165 31.3503 39.3615C31.451 39.604 31.4709 39.8724 31.4073 40.127C31.3438 40.3817 31.1999 40.6092 30.9971 40.7758C30.7943 40.9425 30.5433 41.0395 30.2811 41.0525C30.019 41.0656 29.7595 40.9939 29.5412 40.8482C29.3229 40.7025 29.1572 40.4904 29.0686 40.2433C28.9801 39.9962 28.9734 39.7272 29.0495 39.476C29.1256 39.2247 29.2804 39.0046 29.4912 38.8482C29.702 38.6918 29.9575 38.6073 30.22 38.6072ZM0 34.5819H79.4772C77.7469 34.1431 74.0022 33.55 74.6197 31.2819C71.4728 34.9231 63.8844 33.8365 61.9691 32.0412C59.8366 35.1344 47.4209 33.9584 46.555 31.5487C43.8812 34.6865 35.5966 34.6865 32.9228 31.5487C32.0562 33.9584 19.6409 35.1344 17.5081 32.0409C15.5931 33.8365 8.005 34.9231 4.85812 31.2822C5.47563 33.55 1.73094 34.1428 0 34.5819Z" fill="#EDEDED"/>
<path fill-rule="evenodd" clip-rule="evenodd" d="M34.7615 50.4344C30.5303 48.4266 28.2081 45.6969 26.9159 42.7175C25.344 43.166 23.455 43.4528 21.2597 43.576C20.4328 43.6222 19.5628 43.646 18.6503 43.646C17.5978 43.646 16.4887 43.6147 15.3243 43.5532C19.2047 47.4313 23.9781 50.4169 32.8168 50.4713C33.4693 50.4713 34.1168 50.4588 34.7615 50.4344Z" fill="#BDD9D7"/>
<path fill-rule="evenodd" clip-rule="evenodd" d="M28.4875 45.4669C27.9021 44.6722 27.3343 43.6734 26.9168 42.7169C25.345 43.1659 23.4553 43.4528 21.2596 43.5762C22.7678 44.3947 24.924 45.1531 28.4875 45.4669Z" fill="#D3ECEC"/>
</svg>
