<svg width="80" height="80" viewBox="0 0 80 80" fill="none" xmlns="http://www.w3.org/2000/svg">
<path d="M49.8728 33.1078L65.25 31.4678L73.2177 33.1221L73.2465 33.1397L58.5562 34.0161L49.859 33.1221L49.8728 33.1078Z" fill="#353535"/>
<path d="M49.8593 33.1223L65.2369 31.921L65.3426 31.767L65.3431 12.7945L65.2374 12.5776L49.8593 16.5769V33.1223Z" fill="#BEBEBE"/>
<path d="M73.2468 33.1402L65.2369 31.921L65.2375 12.5776L73.2465 16.5849L73.2468 33.1402Z" fill="#F2F2F2"/>
<path d="M49.8593 46.7831L50.0839 46.9405L65.2395 47.9688L72.9725 46.9405L73.2465 46.7901L58.5564 45.8875L49.8593 46.7831Z" fill="#F2F2F2"/>
<path d="M49.8593 46.7831L65.2395 47.9272L65.287 47.9911L65.2754 67.1968L65.2374 67.2971L49.8593 63.3296V46.7831Z" fill="#BEBEBE"/>
<path d="M73.2465 46.7901L65.2395 47.9272L65.2374 67.2971L73.2465 63.3208V46.7901Z" fill="#F2F2F2"/>
<path d="M29.9011 33.0929L14.6984 31.7906L6.80391 33.101L6.75378 33.1402L21.4439 34.0166L29.9826 33.1397L29.9011 33.0929Z" fill="#353535"/>
<path d="M6.75378 33.1402L14.6907 31.9782L14.9242 31.8127V12.7997L14.6907 12.5776L6.75378 16.5857V33.1402Z" fill="#BEBEBE"/>
<path d="M29.9826 33.1397L14.6907 31.9782V12.5776L29.9834 16.5769L29.9826 33.1397Z" fill="#F2F2F2"/>
<path d="M29.9826 46.7901L29.6317 47.046L14.6907 48.1662L7.0068 47.046L6.7533 46.7901L21.4439 45.8875L29.9826 46.7901Z" fill="#F2F2F2"/>
<path d="M6.7533 46.7901L14.6904 47.9174L14.8923 48.1646L14.9138 66.9524L14.6907 67.2971L6.75382 63.3208L6.7533 46.7901Z" fill="#BEBEBE"/>
<path d="M29.9826 46.7901L14.6904 47.9174L14.6907 67.2971L29.9826 63.3296V46.7901Z" fill="#F2F2F2"/>
<path d="M55.8712 49.2623L40.0003 47.6971L23.9712 49.2626L24.1972 49.4535L39.9221 51.9514L55.645 49.4535L55.8712 49.2623Z" fill="#F2F2F2"/>
<path d="M23.9712 49.2626L39.9221 51.5997L40.0839 51.8161L40.1044 79.5976L39.9221 79.9057L23.9712 71.9301V49.2626Z" fill="#BEBEBE"/>
<path d="M55.8712 49.2623L39.9221 51.5997V79.9057L55.8715 71.9301L55.8712 49.2623Z" fill="#F2F2F2"/>
<path d="M40.0003 32.1904L23.9712 30.6429L24.0125 30.6192L39.9213 28.1512L55.8231 30.6249L55.8715 30.6429L40.0003 32.1904Z" fill="#353535"/>
<path d="M23.9712 30.6429L39.9221 28.3184L39.9985 28.2488L39.9631 0.0428571L39.9221 0L23.9712 7.97636V30.6429Z" fill="#BEBEBE"/>
<path d="M55.8715 30.6429L39.9221 28.3184V0L55.8715 7.97636V30.6429Z" fill="#F2F2F2"/>
</svg>
