<svg width="80" height="80" viewBox="0 0 80 80" fill="none" xmlns="http://www.w3.org/2000/svg">
<path d="M61.6059 15.5347L68.5011 13.7592L68.5525 13.8349L68.7267 55.4689L68.5011 55.6952L67.0804 55.756L61.6867 54.9164L61.6059 54.7039V15.5347Z" fill="#BEBEBE"/>
<path d="M21.7271 58.5876L21.7525 58.5894L39.9537 63.8783L40 63.9138L40.0792 63.977L40.0535 79.825L40 79.8924L21.7271 71.0154V58.5876Z" fill="#BEBEBE"/>
<path d="M61.6059 54.7039L40.03 59.871L29.197 57.2562L21.7271 58.5876L40 63.9139L68.202 56.2785L68.5011 55.6953L61.6059 54.7039Z" fill="#BEBEBE"/>
<path d="M58.2729 21.3046L58.0971 21.1042L40.1964 15.9029L40 15.9786L39.8202 15.8868L11.6527 24.0091L11.4989 24.1972L11.725 24.3211L18.1664 25.2655L18.3941 25.1882L39.97 20.0214L50.8029 22.6362L58.2729 21.3046Z" fill="#2C2C2C"/>
<path d="M18.3941 64.3577L11.4989 66.0222L11.4868 65.9823L11.2152 24.5038L11.4989 24.1972L18.3941 25.1882V64.3577Z" fill="#F2F2F2"/>
<path d="M27.703 48.2684L40 49.7108L40.0923 49.573L40.1423 30.339L40 30.1814L27.703 31.6241V48.2684Z" fill="#BEBEBE"/>
<path d="M52.297 48.2684L40 49.7108V30.1814L52.297 31.6241V48.2684Z" fill="#F2F2F2"/>
<path d="M58.2729 21.3046L40 15.9786V0L58.2729 8.87679V21.3046Z" fill="#F2F2F2"/>
<path d="M40 0L5.7525 16.5332V63.3589L11.4989 66.0222V24.1972L40 15.9786V0Z" fill="#BEBEBE"/>
<path d="M68.5011 13.7592V55.6952L40 63.9138V79.8924L74.2475 63.3589V16.5332L68.5011 13.7592Z" fill="#F2F2F2"/>
</svg>
